<svg width="200" height="189" viewBox="0 0 200 189" fill="none" xmlns="http://www.w3.org/2000/svg">
<path d="M84.5 180.214C80.2143 183.5 94.6429 195.643 59.2143 182.857C23.8571 170.071 9.42857 125.5 2.21429 100.929C-5 76.3572 14.3571 42.9286 27.1429 33.4286C39.9286 23.9286 63.5 20 66.1429 19.6429C68.7143 19.3572 72.3571 17.7143 78.5714 11.5C84.7857 5.28573 104.429 -1.2857 118.571 1.64288C132.643 4.57145 167.714 38 190.929 85.2143C214.214 132.357 182.786 166.143 177.214 166.143C171.643 166.143 139.5 144.5 136.571 141.857C133.643 139.286 126.429 138.571 121.143 136.643C115.929 134.643 103.786 120.286 103.786 120.286C105.786 156.286 88.7143 176.929 84.5 180.214V180.214Z" fill="#EAB363"/>
</svg>
